<svg xmlns="http://www.w3.org/2000/svg" width="47.278" height="46.121" viewBox="0 0 47.278 46.121"><g transform="translate(-119.487 -2)"><g transform="translate(119.487 2)"><path d="M44.106,17.138a23.536,23.536,0,0,0-8.6-8.6,23.121,23.121,0,0,0-11.865-3.17,23.124,23.124,0,0,0-11.865,3.17,23.533,23.533,0,0,0-8.6,8.6A23.123,23.123,0,0,0,0,29,22.973,22.973,0,0,0,4.509,42.9a23.152,23.152,0,0,0,11.65,8.541,1.378,1.378,0,0,0,1.231-.215,1.2,1.2,0,0,0,.4-.923q0-.092-.016-1.662T17.759,45.9l-.708.122a9.029,9.029,0,0,1-1.708.108,13.013,13.013,0,0,1-2.139-.215,4.78,4.78,0,0,1-2.062-.923A3.905,3.905,0,0,1,9.787,43.1l-.308-.708a7.691,7.691,0,0,0-.969-1.57,3.714,3.714,0,0,0-1.339-1.169L6.956,39.5a2.259,2.259,0,0,1-.4-.37,1.689,1.689,0,0,1-.277-.431q-.092-.216.154-.355a2,2,0,0,1,.893-.138l.615.092a4.493,4.493,0,0,1,1.524.739,4.968,4.968,0,0,1,1.493,1.6,5.426,5.426,0,0,0,1.708,1.924,3.624,3.624,0,0,0,2.016.662,8.752,8.752,0,0,0,1.754-.153,6.121,6.121,0,0,0,1.385-.462,4.987,4.987,0,0,1,1.508-3.171,21.074,21.074,0,0,1-3.155-.554,12.561,12.561,0,0,1-2.893-1.2A8.286,8.286,0,0,1,10.8,35.62a9.91,9.91,0,0,1-1.616-3.232,15.369,15.369,0,0,1-.631-4.617,8.977,8.977,0,0,1,2.432-6.341,8.274,8.274,0,0,1,.215-6.279,4.313,4.313,0,0,1,2.647.415,18.506,18.506,0,0,1,2.57,1.185q.816.492,1.308.831a22.229,22.229,0,0,1,11.82,0l1.17-.738a16.564,16.564,0,0,1,2.831-1.355,4.034,4.034,0,0,1,2.494-.338,8.194,8.194,0,0,1,.246,6.279,8.979,8.979,0,0,1,2.432,6.341A15.541,15.541,0,0,1,38.09,32.4a9.525,9.525,0,0,1-1.631,3.232,8.6,8.6,0,0,1-2.494,2.047,12.586,12.586,0,0,1-2.893,1.2,21.054,21.054,0,0,1-3.155.555,5.482,5.482,0,0,1,1.6,4.37V50.3a1.226,1.226,0,0,0,.385.923,1.337,1.337,0,0,0,1.216.215A23.148,23.148,0,0,0,42.769,42.9,22.978,22.978,0,0,0,47.277,29,23.141,23.141,0,0,0,44.106,17.138Z" transform="translate(0 -5.365)" fill="#fff"/></g></g></svg>