<svg xmlns="http://www.w3.org/2000/svg" width="49.535" height="49.536" viewBox="0 0 49.535 49.536"><g transform="translate(0 0)"><path d="M-2085.852-4688.916a24.611,24.611,0,0,1-9.641-1.946,24.68,24.68,0,0,1-7.873-5.309,24.681,24.681,0,0,1-5.308-7.872,24.611,24.611,0,0,1-1.946-9.641,24.612,24.612,0,0,1,1.946-9.641,24.681,24.681,0,0,1,5.308-7.873,24.68,24.68,0,0,1,7.873-5.309,24.612,24.612,0,0,1,9.641-1.946,24.615,24.615,0,0,1,9.641,1.946,24.687,24.687,0,0,1,7.872,5.309,24.677,24.677,0,0,1,5.308,7.873,24.612,24.612,0,0,1,1.946,9.641,24.611,24.611,0,0,1-1.946,9.641,24.677,24.677,0,0,1-5.308,7.872,24.679,24.679,0,0,1-7.872,5.309A24.614,24.614,0,0,1-2085.852-4688.916Zm-11.362-35.914a2.83,2.83,0,0,0-2.827,2.827v16.959a2.83,2.83,0,0,0,2.827,2.827h22.613a2.83,2.83,0,0,0,2.828-2.827V-4722a2.83,2.83,0,0,0-2.828-2.827Zm2.827,19.787h-2.827V-4722h1.7l9.611,5.935,9.611-5.935h1.695v16.958h-2.827v-12.437l-8.479,5.37-8.48-5.37v12.437Z" transform="translate(2110.62 4738.452)" fill="#fff"/></g></svg>