<svg xmlns="http://www.w3.org/2000/svg" width="46.121" height="46.121" viewBox="0 0 46.121 46.121"><path d="M23.06,0a23.06,23.06,0,1,0,23.06,23.06A23.063,23.063,0,0,0,23.06,0Zm-6.7,34.861H10.743v-16.9h5.616Zm-2.808-19.2h-.037a2.927,2.927,0,1,1,.074-5.838,2.928,2.928,0,1,1-.037,5.838Zm23.059,19.2H30.995V25.822c0-2.272-.813-3.821-2.845-3.821a3.074,3.074,0,0,0-2.882,2.054,3.846,3.846,0,0,0-.185,1.371v9.436H19.468s.074-15.312,0-16.9h5.616v2.392a5.576,5.576,0,0,1,5.061-2.789c3.7,0,6.466,2.415,6.466,7.6Zm0,0" transform="translate(0)" fill="#fff"/></svg>